<svg width="203" height="33" viewBox="0 0 203 33" fill="none" xmlns="http://www.w3.org/2000/svg">
<path fill-rule="evenodd" clip-rule="evenodd" d="M6.53241 16C3.84847 16 1.74681 15.3972 0 13.7458L1.55235 12.2218C2.81357 13.524 4.52742 14.0324 6.50055 14.0324C9.11967 14.0324 10.7368 13.1112 10.7368 11.2698C10.7368 9.90395 9.92825 9.14301 8.08476 8.98382L5.46565 8.76201C2.36094 8.5073 0.711907 7.14248 0.711907 4.57097C0.711907 1.71398 3.16953 0 6.56427 0C8.82853 0 10.8654 0.540196 12.2881 1.68214L10.7687 3.17432C9.63712 2.31679 8.18144 1.93685 6.53241 1.93685C4.20443 1.93685 2.97507 2.92067 2.97507 4.50836C2.97507 5.84134 3.7518 6.63518 5.75568 6.79331L8.31108 7.01618C11.0917 7.26983 13 8.31733 13 11.238C13 14.2542 10.3809 16 6.53241 16Z" transform="translate(58 16)" fill="#221E20"/>
<path fill-rule="evenodd" clip-rule="evenodd" d="M10.2004 4.28552C9.58931 2.85703 8.17366 1.93689 6.50001 1.93689C4.82636 1.93689 3.4118 2.85703 2.79962 4.28552C2.44544 5.14304 2.38203 5.61956 2.31754 6.88887H10.6836C10.6191 5.61956 10.5546 5.14304 10.2004 4.28552ZM2.31752 8.60281C2.31752 12.0318 3.95838 14.0005 6.98318 14.0005C8.81643 14.0005 9.87899 13.4603 11.134 12.2229L12.7103 13.5877C11.1023 15.1754 9.62101 16 6.91868 16C2.73512 16 0 13.524 0 8C0 2.95251 2.47822 0 6.5 0C10.5874 0 13 2.92067 13 7.55638V8.60281H2.31752Z" transform="translate(73 16)" fill="#221E20"/>
<path fill-rule="evenodd" clip-rule="evenodd" d="M8.38426 3.21267C7.56189 2.34479 6.95184 2.05585 5.79285 2.05585C3.59814 2.05585 2.19575 3.88722 2.19575 6.29753V16H0V0.192266H2.19575V2.1203C3.01916 0.803437 4.66494 0 6.4029 0C7.83532 0 8.9332 0.352309 10 1.47798L8.38426 3.21267Z" transform="translate(89 16)" fill="#221E20"/>
<path fill-rule="evenodd" clip-rule="evenodd" d="M8.03741 16H5.92902L0 0H2.56946L6.98321 12.8461L11.4305 0H14L8.03741 16Z" transform="translate(100 16)" fill="#221E20"/>
<path fill-rule="evenodd" clip-rule="evenodd" d="M10.2004 4.28552C9.58931 2.85703 8.17366 1.93689 6.50001 1.93689C4.82636 1.93689 3.41071 2.85703 2.79962 4.28552C2.44544 5.14304 2.38094 5.61956 2.31754 6.88887H10.6825C10.6191 5.61956 10.5546 5.14304 10.2004 4.28552ZM2.31752 8.60281C2.31752 12.0318 3.95838 14.0005 6.98318 14.0005C8.81643 14.0005 9.87899 13.4603 11.134 12.2229L12.7103 13.5877C11.1012 15.1754 9.62101 16 6.91868 16C2.73512 16 0 13.524 0 8C0 2.95251 2.47822 0 6.5 0C10.5874 0 13 2.92067 13 7.55638V8.60281H2.31752Z" transform="translate(115 16)" fill="#221E20"/>
<path fill-rule="evenodd" clip-rule="evenodd" d="M8.38426 3.21267C7.56085 2.34479 6.95184 2.05585 5.79285 2.05585C3.59814 2.05585 2.19472 3.88722 2.19472 6.29753V16H0V0.192266H2.19472V2.1203C3.01813 0.803437 4.66494 0 6.4029 0C7.83635 0 8.9332 0.352309 10 1.47798L8.38426 3.21267Z" transform="translate(131 16)" fill="#221E20"/>
<path fill-rule="evenodd" clip-rule="evenodd" d="M5.91482 9.99796V23H1.73535V9.99796H0V6.83582H1.73535V4.75976C1.73535 2.39537 3.21405 0 6.62141 0H9V3.51349H7.36076C6.36476 3.51349 5.91482 4.05706 5.91482 5.015V6.83582H9V9.99796H5.91482Z" transform="translate(143 9)" fill="#221E20"/>
<path fill-rule="evenodd" clip-rule="evenodd" d="M9.7777 9.80969H6.43165C4.9054 9.80969 4.06006 10.5137 4.06006 11.6962C4.06006 12.8456 4.83919 13.6126 6.49676 13.6126C7.66655 13.6126 8.41368 13.5165 9.1597 12.8147C9.61547 12.398 9.7777 11.7272 9.7777 10.7049V9.80969ZM9.87482 16.8398V15.4019C8.73814 16.5204 7.66656 17 5.71654 17C3.80073 17 2.40359 16.5204 1.39603 15.5301C0.486678 14.6029 0 13.2612 0 11.7913C0 9.13988 1.8507 6.966 5.78165 6.966H9.77771V6.13491C9.77771 4.31356 8.86836 3.51452 6.62699 3.51452C5.00252 3.51452 4.2554 3.89801 3.37805 4.88934L0.682012 2.30099C2.33959 0.51062 3.96295 0 6.78922 0C11.5324 0 14 1.98159 14 5.8796V16.8398H9.87482Z" transform="translate(153 15)" fill="#221E20"/>
<path fill-rule="evenodd" clip-rule="evenodd" d="M9.89392 16.8059V15.2573C8.79435 16.4187 7.24331 17 5.69117 17C4.00942 17 2.65171 16.4511 1.71361 15.5161C0.354806 14.1606 0 12.5807 0 10.7409V0H4.20275V10.1607C4.20275 12.4513 5.65932 13.2256 6.98407 13.2256C8.30993 13.2256 9.79725 12.4513 9.79725 10.1607V0H14V16.8059H9.89392Z" transform="translate(170 15)" fill="#221E20"/>
<path fill-rule="evenodd" clip-rule="evenodd" d="M6.73667 21.6233C3.27 21.6233 1.79889 19.1667 1.79889 16.7418V8.28876H0V5.04576H1.79889V0H6.05V5.04576H9.05889V8.28876H6.05V16.48C6.05 17.4625 6.50778 18.02 7.52111 18.02H9.05889V21.6233H6.73667Z" transform="translate(193.736 9.79614)" fill="#221E20"/>
<path fill-rule="evenodd" clip-rule="evenodd" d="M4.7084 23C1.39516 23 0 20.5778 0 18.1868V0H4.0266V17.9287C4.0266 18.9298 4.42853 19.4471 5.45122 19.4471H7V23H4.7084Z" transform="translate(186 9)" fill="#221E20"/>
<path fill-rule="evenodd" clip-rule="evenodd" d="M0 5H24V0H0V5Z" transform="translate(0 7)" fill="#A7A8AB"/>
<path fill-rule="evenodd" clip-rule="evenodd" d="M0 5H24V0H0V5Z" transform="translate(0 14)" fill="#808284"/>
<path fill-rule="evenodd" clip-rule="evenodd" d="M0 5H24V0H0V5Z" transform="translate(0 21)" fill="#59595B"/>
<path fill-rule="evenodd" clip-rule="evenodd" d="M0 5H24V0H0V5Z" fill="#D1D2D4"/>
<path fill-rule="evenodd" clip-rule="evenodd" d="M0 5H24V0H0V5Z" transform="translate(0 28)" fill="#221F1F"/>
<path fill-rule="evenodd" clip-rule="evenodd" d="M0 5H10V0H0V5Z" transform="translate(27 7)" fill="#982224"/>
<path fill-rule="evenodd" clip-rule="evenodd" d="M0 5H10V0H0V5Z" transform="translate(27 14)" fill="#630F16"/>
<path fill-rule="evenodd" clip-rule="evenodd" d="M0 5H10V0H0V5Z" transform="translate(27 21)" fill="#2B1315"/>
<path fill-rule="evenodd" clip-rule="evenodd" d="M0 5H10V0H0V5Z" transform="translate(27)" fill="#E7282D"/>
<path fill-rule="evenodd" clip-rule="evenodd" d="M0 5H10V0H0V5Z" transform="translate(27 28)" fill="#221F1F"/>
<path fill-rule="evenodd" clip-rule="evenodd" d="M0 5H10V0H0V5Z" transform="translate(40 7)" fill="#A7A8AB"/>
<path fill-rule="evenodd" clip-rule="evenodd" d="M0 5H10V0H0V5Z" transform="translate(40 14)" fill="#808284"/>
<path fill-rule="evenodd" clip-rule="evenodd" d="M0 5H10V0H0V5Z" transform="translate(40 21)" fill="#59595B"/>
<path fill-rule="evenodd" clip-rule="evenodd" d="M0 5H10V0H0V5Z" transform="translate(40)" fill="#D1D2D4"/>
<path fill-rule="evenodd" clip-rule="evenodd" d="M0 5H10V0H0V5Z" transform="translate(40 28)" fill="#221F1F"/>
</svg>
